<svg xmlns="http://www.w3.org/2000/svg" width="24" height="24" viewBox="0 0 24 24" fill="none" stroke="currentColor" stroke-width="2" stroke-linecap="round" stroke-linejoin="round">
  <path d="M8 3v3a1 1 0 0 1-1 1H5a1 1 0 0 1-1-1V3a1 1 0 0 1 1-1h2a1 1 0 0 1 1 1z"/>
  <path d="M18 3v3a1 1 0 0 1-1 1h-2a1 1 0 0 1-1-1V3a1 1 0 0 1 1-1h2a1 1 0 0 1 1 1z"/>
  <path d="M20 14v3a1 1 0 0 1-1 1h-2a1 1 0 0 1-1-1v-3a1 1 0 0 1 1-1h2a1 1 0 0 1 1 1z"/>
  <path d="M14 16c.64-.1 1.3-.1 2-.13"/>
  <path d="M10.43 12.84a14.14 14.14 0 0 0 3.57.48"/>
  <path d="M15 13V8a5 5 0 0 0-10 0v8"/>
  <path d="M5 21h14"/>
</svg>
